<svg id="Layer_1" data-name="Layer 1" xmlns="http://www.w3.org/2000/svg" viewBox="0 0 254.51 99.79"><defs><style>.cls-1{fill:#2b2b2b;}</style></defs><title>site</title><path class="cls-1" d="M248.93,265.85h35V234.37h20.22v31.37h19.51c1-2.19,1.85-4.5,3-6.68,8.87-17,23.05-25.48,42.08-24.69,18.25.75,31,10.28,38.63,26.8a52.92,52.92,0,0,1,4.41,18.18c.07.91,0,1.83,0,3.08H341.21c0,2.63-.18,5,0,7.35.72,7.89,2.86,15.26,8.89,20.87,12.23,11.35,33.6,8.86,40.13-8.18.39-1,.66-2.05,1-3.27h20.29a25.77,25.77,0,0,1-2.85,10.23C402,323.85,390.62,332,374.69,333.6c-12.52,1.25-24.24-1.07-34.63-8.44s-16-17.46-18.18-29.7c-.74-4.17-.89-8.43-1.33-12.85h-16a3.76,3.76,0,0,0-.29,1c.06,8.83.12,17.66.24,26.49a9.72,9.72,0,0,0,.66,2.93,6,6,0,0,0,5.55,4.29c4,.23,8,.06,12.22.06V332.8c-1.29.17-2.65.37-4,.54-7.19.86-14.35,1.15-21.46-.66-7.36-1.86-11.65-6.39-12.72-13.93a75.32,75.32,0,0,1-.7-9.49c-.1-8.06,0-16.12,0-24.17,0-.76-.07-1.52-.12-2.47H268.74V333H248.93Zm139.85-.09c-1-5.82-10.24-15.33-22.46-15.18-11.93.14-20.85,8.85-22.05,15.18Z" transform="translate(-157.27 -234.22)"/><path class="cls-1" d="M238.61,265.52H218c-.14-.53-.3-1-.42-1.55-1.66-6.93-5.87-11.29-12.93-12.69a32.07,32.07,0,0,0-18.49,1.34c-3.12,1.24-5.41,3.43-5.75,7s1.33,6.28,4.24,8.23a13.87,13.87,0,0,0,3.67,2c5.41,1.55,10.88,2.93,16.32,4.41,6.86,1.86,13.87,3.32,20.52,5.73,8.74,3.17,15.06,9.14,16.29,18.84,1.51,12-2.5,21.44-13.45,28.13-6.34,3.86-13.37,5.67-20.66,6.52a64.4,64.4,0,0,1-25.1-1.75c-16.12-4.54-23.86-15.53-25-31.11a7.48,7.48,0,0,1,.12-1.13h20.5c.21,1.09.39,2.22.66,3.32A18.1,18.1,0,0,0,194.44,317c7.08.94,14.11.79,20.68-2.44,7.59-3.74,8.15-12.93,1.14-17.69-4.39-3-9.51-4-14.56-5.2-8.43-1.94-17.06-3.13-25.15-6.43-6.41-2.62-12.08-6.3-14.68-13-5.2-13.46-1.38-26.81,13.39-33.26,10.33-4.51,21.19-5.53,32.31-4.07a40.49,40.49,0,0,1,15.58,5C232.8,245.57,237.3,254.38,238.61,265.52Z" transform="translate(-157.27 -234.22)"/><path class="cls-1" d="M248.82,253.58V234.35h19.63v19.23Z" transform="translate(-157.27 -234.22)"/></svg>