<svg id="Layer_1" data-name="Layer 1" xmlns="http://www.w3.org/2000/svg" viewBox="0 0 202.71 154.15"><defs><style>.cls-1{fill:#2b2b2b;}.cls-2{fill:#d2d2d2;}.cls-3{fill:#cdcdcd;}.cls-4{fill:#2c2c2c;}.cls-5{fill:#2e2e2e;}.cls-6{fill:#2d2d2d;}</style></defs><title>win-travel</title><path class="cls-1" d="M294.4,232.49l.21,12.44c0,.92.05,1.84.07,2.75,0,.54-.08,1.07-.08,1.6,0,8.32,0,16.63,0,25a26.42,26.42,0,0,1-3.55,14c-6.25,10.24-15.4,14.67-27.33,13.3A27,27,0,0,1,250.06,295c-8.75,7.08-18.28,9-28.5,4.57-9.61-4.19-14.81-11.92-16-22.33q0-21.74-.1-43.45c0-.75,0-1.32,1-1.31,5.54.07,11.08.08,16.62.11,0,.63.05,1.26.05,1.89v40a9,9,0,1,0,18,0c0-10.46,0-20.93,0-31.39a6.31,6.31,0,0,1,.6-2.79,14.29,14.29,0,0,1,6.41-6.36c2.81-1.44,5.8-1.36,8.82-1.46,1.55,0,1.84.47,1.84,1.9q-.08,20.15,0,40.29a9,9,0,0,0,18,0q0-17.74,0-35.48c0-.48,0-1-.05-1.46l.06-5.21Z" transform="translate(-182.21 -205.83)"/><path class="cls-1" d="M367.23,301.55v-1.81q0-19.71,0-39.42c0-5-2.41-8.29-6.81-9.46a8.87,8.87,0,0,0-11.21,8.58q0,20.15,0,40.3v1.94H331.6V232.56H349l.24.94c3.42-.33,6.73-1,10-.93,13.46.3,25,11.49,25.41,24.93.36,11.53.16,23.07.2,34.6,0,2.82,0,5.65,0,8.47,0,.71-.08,1.21-1,1.21-5.35,0-10.71,0-16.06,0A2.79,2.79,0,0,1,367.23,301.55Z" transform="translate(-182.21 -205.83)"/><path class="cls-2" d="M223.1,232.54c-5.54,0-11.08,0-16.62-.11-1,0-1,.56-1,1.31q.06,21.72.1,43.45a17.75,17.75,0,0,1-.26-2.15q0-19.22,0-38.41V235a51.87,51.87,0,0,0-10.18,32.8,54.3,54.3,0,0,0,6.52,24.41,50.88,50.88,0,0,0,10.92,13.91,16.94,16.94,0,0,0,2,1.41l-.53.67c-.88-.39-1.78-.73-2.63-1.17a53.21,53.21,0,0,1-25.59-28.64,50.94,50.94,0,0,1-2.59-10.28c-.6-3.86-.69-7.8-1-11.72a64,64,0,0,1,3.28-15.79,52,52,0,0,1,12.86-20.26,49.1,49.1,0,0,1,29.84-14.21,47.49,47.49,0,0,1,14.95.54,6.9,6.9,0,0,0,1,.07,11.2,11.2,0,0,0,1.22.45,49.08,49.08,0,0,1,15.48,6.62c.62.39,1.18.86,1.77,1.29a1.35,1.35,0,0,1-1.12.15,53.92,53.92,0,0,0-15.5-2.35,13.33,13.33,0,0,0-2.15.28A48.43,48.43,0,0,0,227.21,217a52.27,52.27,0,0,0-18.78,13.43c-.41.45-.73,1-1.32,1.78H209c4.08,0,8.16,0,12.25,0A10.45,10.45,0,0,1,223.1,232.54Z" transform="translate(-182.21 -205.83)"/><path class="cls-1" d="M321.49,301.68H303.74v-1.93c0-18.49.06-37-.05-55.47a10.31,10.31,0,0,1,3.53-7.81,14,14,0,0,1,10.62-4c3.65.09,3.65,0,3.65,3.67v65.51Z" transform="translate(-182.21 -205.83)"/><path class="cls-3" d="M263.72,301.49c11.93,1.37,21.08-3.06,27.33-13.3a26.42,26.42,0,0,0,3.55-14c0-8.32,0-16.63,0-25,0-.53.06-1.06.08-1.6.25.71.48,1.43.74,2.13,2.19,5.9,2.57,12,2.49,18.24a52.83,52.83,0,0,1-3.72,18.21,52.26,52.26,0,0,1-11.91,18.34,50.4,50.4,0,0,1-21.87,13,49.83,49.83,0,0,1-22.39,1.3c-.77-.13-1.55-.15-2.32-.23l-4.32-1.49a58.19,58.19,0,0,1-13.4-6.6c-.2-.13-.44-.2-.52-.54A58.28,58.28,0,0,0,236,312.23c1.87-.19,3.76-.33,5.62-.59a49.39,49.39,0,0,0,21.67-9C263.56,302.47,263.58,301.89,263.72,301.49Z" transform="translate(-182.21 -205.83)"/><path class="cls-1" d="M316,324.14h4.62v1.93c-.06.06-.12.17-.2.18-2,.26-2,.26-2,2.42,0,2.57-.11,5.15,0,7.72.26,5.06-3.44,6.74-7.13,6.66-1.61,0-3.21-.81-4.89-1.27,1.15-2.19,1.27-2.2,3.05-1.47a5,5,0,0,0,5.12-.44c1.4-1.05,1.35-2.55,1.18-4.29-2,1.5-4.1,2.32-6.35,1.46a7.62,7.62,0,0,1-3.23-2.29,7.12,7.12,0,0,1,.71-9.09c2.25-2.3,5.49-2.36,8.82-.11Zm-4.26,10.91a4.39,4.39,0,0,0,.08-8.77,4.16,4.16,0,0,0-4.18,4.44A4.06,4.06,0,0,0,311.77,335.05Z" transform="translate(-182.21 -205.83)"/><path class="cls-4" d="M328,346.83v1.9l-1.55.4c.73,2.36,1.44,4.66,2.16,6.95l.33.05c.73-2.29,1.47-4.59,2.22-7l-1.27-.47v-1.89h6.08c.15,1,.77,2.15-1.19,2.23l2.23,7.13.31,0c.73-2.29,1.47-4.58,2.24-7l-1.58-.4v-2h5.66v2.14c-2-.56-2.1,1-2.49,2.2-.76,2.46-1.58,4.91-2.3,7.38a1.52,1.52,0,0,1-1.72,1.33c-1,0-1.31-.45-1.57-1.31a60.2,60.2,0,0,0-2.69-7.54c-.82,2.52-1.67,5-2.42,7.56-.27.89-.62,1.27-1.59,1.28a1.49,1.49,0,0,1-1.72-1.3c-.77-2.66-1.68-5.28-2.47-7.94-.31-1.05-.64-2-2.09-1.69v-2.06Z" transform="translate(-182.21 -205.83)"/><path class="cls-1" d="M347.52,320.77l-1.93-.12v-2.16h4.55v6.56c1.83-.48,3.58-1.25,5.35-1.31a5.3,5.3,0,0,1,4.69,2.76,7.41,7.41,0,0,1-.9,8.9c-2.28,2.29-5.36,2.34-9,.06-.08.49-.15.94-.23,1.49h-3.53c-.32,0-.65-.09-1.06-.14v-2l2-.18Zm10.94,9.49a4,4,0,0,0-4.07-4.23,4.49,4.49,0,0,0-.07,8.94C356.69,335,358.48,332.93,358.46,330.26Z" transform="translate(-182.21 -205.83)"/><path class="cls-4" d="M374.83,353.54v3.64l1.7.32v2h-6.64v-2l2.29-.27v-11.4c0-2.34,0-2.34-2.15-2.64-.5-2.07-.43-2.17,1.62-2.17h3.08V352.6l4.56-3.62-1.76-.33v-1.82h7v1.83c-3.13-.08-4.39,2.67-6.95,4.14,1.64,1.56,3,2.9,4.47,4.2a1.75,1.75,0,0,0,.92.32c1.76.2,1.76.19,1.41,2.15-1.68.26-3.21.37-4.52-1.23-1.44-1.75-3.14-3.29-4.72-4.93Z" transform="translate(-182.21 -205.83)"/><path class="cls-4" d="M296.41,357.25l2,.16v2.18c-1.31,0-2.61.06-3.9-.06-.28,0-.7-.7-.71-1.09-.07-2.34,0-4.67,0-7,0-2-.47-2.64-1.76-2.6-1.86.05-3.46,1.39-3.47,2.92v5.32c2.4.56,2.4.56,2,2.43H284c-.52-1.95-.51-2,2-2.33v-8.12l-2.2-.26v-1.87c3-.64,4.59-.35,5,1,.89-.39,1.74-.85,2.64-1.15,2.88-1,5,.48,5,3.53C296.45,352.54,296.41,354.82,296.41,357.25Z" transform="translate(-182.21 -205.83)"/><path class="cls-4" d="M267.23,353.77H256.45a3.9,3.9,0,0,0,2.41,3.56,4.35,4.35,0,0,0,4.92-.7c1.19-1.12,2.08-.79,3.27,0a6.6,6.6,0,0,1-4.36,3.07c-4.94,1.19-9.19-1.83-9.21-6.54a6.64,6.64,0,0,1,6-6.83,6.79,6.79,0,0,1,7.39,5.22C267.07,352.22,267.11,352.89,267.23,353.77Zm-2.93-1.9a3.9,3.9,0,0,0-4.28-3.43,3.42,3.42,0,0,0-3.39,3.43Z" transform="translate(-182.21 -205.83)"/><path class="cls-4" d="M313.17,353.81H302.59a3.84,3.84,0,0,0,2.43,3.53,4.33,4.33,0,0,0,4.92-.73c1.2-1.15,2.08-.69,3.13-.07,0,.18,0,.3,0,.37-1.6,2.61-5.57,3.76-9,2.6a6.68,6.68,0,0,1-4.39-7.26,6.81,6.81,0,0,1,5.95-5.9C309.74,345.73,313.25,349.06,313.17,353.81Zm-2.75-2c-.06-2.19-2.43-3.57-4.2-3.42a3.52,3.52,0,0,0-3.45,3.42Z" transform="translate(-182.21 -205.83)"/><path class="cls-1" d="M336.92,337.34a6.59,6.59,0,0,1-6.85-6.78,6.72,6.72,0,0,1,6.76-6.92,6.81,6.81,0,0,1,6.88,6.82A6.68,6.68,0,0,1,336.92,337.34Zm4-6.83a4,4,0,0,0-4.1-4.31,4.14,4.14,0,0,0-4,4.35,4.27,4.27,0,0,0,4.15,4.36A4.21,4.21,0,0,0,340.88,330.51Z" transform="translate(-182.21 -205.83)"/><path class="cls-4" d="M374.39,334.64l2.07.15v1.91c-2.46.72-4.12.37-4.54-.94-3.54,1.77-5.61,1.81-7.21.14a4.1,4.1,0,0,1-.6-4.86c1.23-2.08,3.24-2.44,7.62-1.36.17-1.35.24-2.66-1.16-3.45-1.2-.68-2.68-.26-4.07.6-.61.37-1.64.06-2.78.06a8.93,8.93,0,0,1,.69-1.23c1.82-2.17,6.12-2.72,8.45-1.1a3.85,3.85,0,0,1,1.53,3.45Zm-5.83-3.7a2.29,2.29,0,0,0-2.56,2.19,2.26,2.26,0,0,0,2.8,2c1.69-.22,3.1-1.33,3-2.38S370.2,331,368.56,330.94Z" transform="translate(-182.21 -205.83)"/><path class="cls-1" d="M357.26,353.2a6.76,6.76,0,1,1-13.52-.17,6.76,6.76,0,1,1,13.52.17Zm-2.7.05a4.07,4.07,0,1,0-4.1,4.23A4.17,4.17,0,0,0,354.56,353.25Z" transform="translate(-182.21 -205.83)"/><path class="cls-4" d="M233.77,352.32c.17-1.41.16-2.66-1.11-3.44a3.53,3.53,0,0,0-4,.53c-.73.65-1,.62-2.75-.29,1.26-2.24,3.32-2.88,5.65-2.84,3.6.08,4.84,1.42,4.86,5,0,1.94,0,3.88,0,5.87l2.16.3v1.89c-2.48.66-4.18.33-4.69-1-2.52,1.54-5.08,2.37-7.43-.25a3.93,3.93,0,0,1-.19-4.62C227.56,351.49,229.68,351.14,233.77,352.32Zm-3.38,5.48c1.63,0,3.48-1.2,3.47-2.26s-1.66-2-3.27-2.06a2.33,2.33,0,0,0-2.52,2.25A2.11,2.11,0,0,0,230.39,357.8Z" transform="translate(-182.21 -205.83)"/><path class="cls-2" d="M276.89,232.53l1-.68a51.69,51.69,0,0,0-11.69-14.12l.22-.33a4.84,4.84,0,0,1,1,.23,50.27,50.27,0,0,1,18,13.8,2.36,2.36,0,0,0,1.48.71,31,31,0,0,0,3.2,0l4.35.33Z" transform="translate(-182.21 -205.83)"/><path class="cls-4" d="M238.35,348.73v-1.92h6.33v1.91l-1.44.43,2.65,7,2.69-7-1.67-.37v-2h6.27l.07,1.67c-.1.16-.16.3-.21.3-1.7-.08-2.23,1-2.69,2.41-.84,2.48-1.83,4.91-2.75,7.37-.28.77-.59,1.32-1.62,1.28a1.59,1.59,0,0,1-1.67-1.23c-.86-2.37-1.84-4.7-2.75-7.06S240.68,349.23,238.35,348.73Z" transform="translate(-182.21 -205.83)"/><path class="cls-4" d="M359.19,359.6c-1-2.75,1.05-2.16,2.3-2.39V349l-2.45-.18v-2h4.43c.06.65.12,1.26.22,2.23,1.42-2.15,3.21-3,5.51-2.49.44,2.32.41,2.36-1.69,2.53a3.11,3.11,0,0,0-3.24,2.95c-.16,1.68,0,3.38,0,5.21a10,10,0,0,0,1.43.09c.83,0,1.23.21,1.24,1.14s-.37,1.17-1.22,1.16C363.51,359.57,361.33,359.6,359.19,359.6Z" transform="translate(-182.21 -205.83)"/><path class="cls-5" d="M273.65,357.17l2,.27v2H269c-.46-1.94-.46-1.94,2.08-2.32v-2.39q0-4.67,0-9.33c0-2.06,0-2.06-2.07-2.24v-2.14h4.61Z" transform="translate(-182.21 -205.83)"/><path class="cls-4" d="M326.63,334.62l1.89.18v2.13c-2.07,0-4.11.09-6.12-.08-.36,0-.62-1.14-1-2l2.56-.24V320.8l-2-.17V318.5h4.75Z" transform="translate(-182.21 -205.83)"/><path class="cls-4" d="M219.37,357.16c2.93.37,2.93.37,2.73,2.3h-7.68V357.6c.1-.07.16-.17.25-.18,2.22-.32,2.23-.32,2.23-2.68,0-1.36-.07-2.73,0-4.08s-.24-2-1.67-1.75a3.31,3.31,0,0,1-.91-.15v-2h4.42l.21,2.34c1.42-2.19,3.16-3.1,5.45-2.63.68,2,.46,2.39-1.62,2.55a3,3,0,0,0-3.15,2.84C219.45,353.62,219.46,355.37,219.37,357.16Z" transform="translate(-182.21 -205.83)"/><path class="cls-6" d="M377.17,334.79l2.57-.13V320.79l-2-.17v-2.11h4.74v16.1l1.89.19V337c-2.08,0-4.11.09-6.13-.09C377.86,336.83,377.6,335.69,377.17,334.79Z" transform="translate(-182.21 -205.83)"/><path class="cls-4" d="M206.37,346.79l1.52-.19c-.45-2,.94-2.93,2.5-4v4l2.38.17v2l-2.28.27c0,2.48-.08,4.9,0,7.31.07,1.61,1.44.76,2.34.95-.17.86.66,2-.91,2.35s-3.3-.13-3.75-1.39a6.63,6.63,0,0,1-.29-2.14c0-2.33,0-4.65,0-6.94C206.12,348.68,206.12,348.68,206.37,346.79Z" transform="translate(-182.21 -205.83)"/><path class="cls-6" d="M315.16,348.74v-1.88l1.58-.28c-.37-2,1-2.94,2.63-4.12v4.14l2.16.17c.52,1.86.52,1.86-2,2.36,0,2.43-.09,4.9.08,7.36,0,.43,1.14.79,1.9,1.05.21.76.91,1.91-.86,2.18-2.17.33-3.67-.52-3.75-2.36-.1-2.23,0-4.47,0-6.71C316.8,349.08,316.8,349.08,315.16,348.74Z" transform="translate(-182.21 -205.83)"/></svg>