<svg id="Layer_1" data-name="Layer 1" xmlns="http://www.w3.org/2000/svg" viewBox="0 0 250.32 147.23"><defs><style>.cls-1{fill:#757575;}.cls-2{fill:#848484;}.cls-3{fill:#2b2b2b;}.cls-4{fill:#696969;}.cls-5{fill:#838383;}.cls-6{fill:#656565;}.cls-7{fill:#727272;}.cls-8{fill:#646464;}.cls-9{fill:#717171;}.cls-10{fill:#666;}.cls-11{fill:#676767;}.cls-12{fill:#818181;}.cls-13{fill:#707070;}.cls-14{fill:#6a6a6a;}.cls-15{fill:#686868;}.cls-16{fill:#767676;}.cls-17{fill:#787878;}.cls-18{fill:#888;}.cls-19{fill:#acacac;}.cls-20{fill:#adadad;}.cls-21{fill:#a4a4a4;}.cls-22{fill:#a2a2a2;}.cls-23{fill:#6d6d6d;}.cls-24{fill:#afafaf;}.cls-25{fill:#a6a6a6;}.cls-26{fill:#ababab;}.cls-27{fill:#9b9b9b;}.cls-28{fill:#d8d8d8;}.cls-29{fill:#6e6e6e;}.cls-30{fill:#b3b3b3;}.cls-31{fill:#aeaeae;}</style></defs><title>World-of-dmcs</title><path class="cls-1" d="M390.49,326.56l-1.62-2.47c-1.85-2.79-1.44-5.69-.14-8.48,1.82-3.9.36-7.28-1.66-10.42-1.13-1.76-2.14-3.17-1.15-5.34.68-1.47.47-2.8-1.56-3.18a4.56,4.56,0,0,1-2-1c-1.37-1.19-2.71-.81-4.3-.46-3,.64-6.16,1.63-9,1.07-2.25-.46-4.15-2.93-6.08-4.66-1-.86-1.54-2.13-2.46-3.05-2.34-2.32-2.4-2.38-1-5.67,10.45-.52,20.82-1.45,30.61-5.6a9.63,9.63,0,0,1,2.24-.39l1,1.82C395,277,395,277,395,274.23l8.93-6.77.58-3.21.48.58a5.89,5.89,0,0,1,2.65,4.26c1.2,8.16,1.91,16.2.65,24.55a85.86,85.86,0,0,1-4,17.18c-1.26,3.39-3,6.59-4.5,9.89-1,2.25-3.55,2-5.12,3.27-.07,0-.12.24-.08.27a4.54,4.54,0,0,0,.5.36Z" transform="translate(-158.65 -209.21)"/><path class="cls-2" d="M267.75,276.89c-1.61-1.64-3.5-3.1-4.76-5a7.79,7.79,0,0,1-1.22-6.6c3.8-13.66,10.55-25.59,20.89-35.34a49.7,49.7,0,0,1,9.58-7.52c5-2.81,9.87-6.13,15.28-8.16,4.3-1.62,8.86-2.53,13.31-3.76,1.75.36,3.59.56,4.65,3l5.91-3.43h2.72l-2.61,1.83a2.1,2.1,0,0,1-2.5,2c-2.32-.09-4.55,0-6.26,2.05-.43.53-1.61.43-2.44.66-4.42,1.24-8.84,2.46-12.3,6l.62,2.45,6.93,3.42a16.36,16.36,0,0,1-2.94,1.32,149.15,149.15,0,0,0-28.69,9.78,16.6,16.6,0,0,1-3.49.82c-3.06-.27-3.92.34-4.53,3.24.91,2.63.21,5.14-.52,7.68a18.09,18.09,0,0,0-.84,4.47c-.11,3.71,0,7.43,0,11.15-1.89,1.89-1.21,4.32-1.38,6.58l-3,4Z" transform="translate(-158.65 -209.21)"/><path class="cls-3" d="M214.48,348h-5.72c-2.17-5.42-4.33-10.8-6.48-16.19l-.54,0c-.27,7.8-.55,15.6-.83,23.68h-6.55c.45-12.24.91-24.53,1.38-37.15h8l8.57,21.21,8.91-21.35h7.21c.62,12.45,1.24,24.72,1.86,37.3H223c-.33-7.89-.65-15.68-1-23.47l-.54-.22C219.21,337.18,216.89,342.5,214.48,348Z" transform="translate(-158.65 -209.21)"/><path class="cls-3" d="M158.65,355.41V318.88c.2-.17.35-.4.53-.42,5.36-.76,10.73-1.12,16.06.11,9,2.08,12.35,7.81,13,15.66a34.87,34.87,0,0,1-.66,9.82c-1.17,5.8-5,9.45-10.62,11C171.61,356.62,166.36,357,158.65,355.41Zm7.84-5.68c1.61,0,2.82,0,4,0,4.7-.11,7.72-2.23,9.1-6.69a19.2,19.2,0,0,0,.17-11.06c-1.77-6.26-6.94-8.93-13.29-7Z" transform="translate(-158.65 -209.21)"/><path class="cls-4" d="M330.32,327.94c.9,1.78.28,3.34-.67,4.87a9.75,9.75,0,0,0-1.41,2.53c-.61,2.47-2,3.79-4.62,3.47.6,3.92.52,4-3.69,5.37l-.45,1.85c-2.35,1.31-5.51-.78-7.79,1.59,2,1.93,2.51,2.09,4.76,1.7.64-.12,1.46-1,1.72.42l-1.2.53,1.85,1.37-.57,2,1.9,1.42c-.29.22-.44.45-.59.45a33.28,33.28,0,0,1-5.58-.31c-2.77-.58-3.73-2-4-4.94,0-.41-.05-.95-.3-1.2-2.54-2.53-2.57-5.83-2.86-9.05-.44-4.94-1-9.87-1.19-14.82-.06-2,.91-4,1.41-6a29.41,29.41,0,0,1,4.44,1c5.25,2,10.45,4,15.65,6.11C328.23,326.78,329.26,327.41,330.32,327.94Z" transform="translate(-158.65 -209.21)"/><path class="cls-5" d="M295.7,270.82c-3.7.29-7.42.45-11.09,1-1.41.19-2.71,1.17-4.06,1.8l-3.56-2-1.9-4.61a71.84,71.84,0,0,1,2.76-21.18l3.38-2.68c7.51-.14,15-.3,22.43,1.26v1.35c-.61,4.11-4.94,5.73-5.91,10a25.85,25.85,0,0,0-3-3.15c-.53-.38-1.46-.22-2.21-.3-.54,0-1.09.06-1.63.07-3.59.09-4.4.95-4.49,4.9,3.3,1.22,1.45,4.3,2.15,6.39.36-2,.74-4,1.11-6.06l2.69,2.67.54,2.18-3-.21c.7,2.79-1.11,5.4.66,7.19Z" transform="translate(-158.65 -209.21)"/><path class="cls-3" d="M263.05,319.81,261.32,325c-2.61-.23-4.89-.63-7.17-.61-5,.05-8.44,2.85-9.25,7.75a30,30,0,0,0-.22,8.56c.88,7.16,5.87,9.89,13.56,8.8,1.06-.15,2.11-.47,3.54-.79l1.73,5.59c-7.8,3.74-18.34,2.15-22.92-3.5-4.1-5.07-5.07-10.91-4.27-17.12.57-4.46,2.18-8.55,5.64-11.65C247.24,317.34,256.14,316.31,263.05,319.81Z" transform="translate(-158.65 -209.21)"/><path class="cls-6" d="M298.9,311.41c-1.62-3.77-3.49-7.55-2.48-11.79.47-1.95,1.68-3.72,2.55-5.57.68.16,1.6.09,2,.52,2.19,2.3,4.08,4.92,6.42,7.05a96.94,96.94,0,0,0,11.66,9.5c4.75,3.11,10,5.54,15,8.15,1.45.75,2.25,1.65,2,3.31l-5.44,3.83c-6.88-2.37-14.07-4-20.65-8.33l5.81-6.11-.46-.47-6.55,6c-1-.56-1.56-.87-2.12-1.21Z" transform="translate(-158.65 -209.21)"/><path class="cls-7" d="M292.57,252.3c.75.08,1.68-.08,2.21.3a25.85,25.85,0,0,1,3,3.15c1-4.3,5.3-5.92,5.91-10l4.62,0c5,.7,10,1.36,15,2.14a8.22,8.22,0,0,1,2.29,1.19,6,6,0,0,1-4.63,4.05,6.57,6.57,0,0,0-3.05,2.17c-2,2.22-4.63,3.9-5.4,7.23-.27,1.18-2.14,2.08-3.4,2.93s-2.67,1.49-4,2.22a31.09,31.09,0,0,1-13.95-11.31Z" transform="translate(-158.65 -209.21)"/><path class="cls-8" d="M298.31,287.49c1.58.35,3.18,1.1,4.61-.44a1.15,1.15,0,0,1,.93-.24c4.07.75,8.17,1.41,12.2,2.39,1.75.43,3.31,1.62,5,2.3s3.45,1.56,4.2,3.45a6.9,6.9,0,0,0,4.18,3.81c-.14.41-.15,1-.44,1.2-3.7,3.05-7.45,6.05-11.3,9.16a74.22,74.22,0,0,1-12.13-10.73c-2.53-2.61-4.79-5.4-5.87-9l-2-1.38Z" transform="translate(-158.65 -209.21)"/><path class="cls-3" d="M267.53,354.62c.39-1.7.75-3.27,1.17-5.08a26.65,26.65,0,0,0,4.36.81,21,21,0,0,0,5.48-.5,2.78,2.78,0,0,0,1.56-2.16,3.05,3.05,0,0,0-1.57-2.16,34.58,34.58,0,0,0-4.65-1.64c-4.5-1.53-6.17-3.86-5.75-8a7.86,7.86,0,0,1,7.28-7.32,21,21,0,0,1,11.16,1.25c-.37,1.61-.74,3.23-1.15,5.05a23.47,23.47,0,0,0-8-.76,2.88,2.88,0,0,0-1.76,2c-.11.53.73,1.6,1.39,1.91,1.58.73,3.32,1.11,5,1.73,4.3,1.62,5.68,3.79,5.37,8.3-.25,3.79-2.61,6-5.86,7.27C277.25,357,272.56,356.76,267.53,354.62Z" transform="translate(-158.65 -209.21)"/><path class="cls-4" d="M360.07,281.45a8.82,8.82,0,0,0,.07-2c-1-5,2.2-7.84,5.52-10.62,1-.81,1.82-1.76,3.12-3l4.51-.87-.06,0a19.89,19.89,0,0,0,2.07,1.47c4.6,2.47,9.23,4.9,13.85,7.34l2.18,1.09.4.68C381.66,280.06,371,281.64,360.07,281.45Z" transform="translate(-158.65 -209.21)"/><path class="cls-3" d="M167.08,307.91c.74-3,1.47-6,2.22-9s1.53-5.95,2.34-9.11h3.53q2.33,9.17,4.64,18.32l.64,0,3.88-18.35h3.33c-1.93,8.06-3.78,15.81-5.69,23.77h-3.92l-4.41-16.7-.84,0c-1.44,5.45-2.89,10.9-4.4,16.62h-3.83c-1.88-7.8-3.75-15.57-5.71-23.67l3.6-.23L166.4,308Z" transform="translate(-158.65 -209.21)"/><path class="cls-9" d="M317.53,235.11c1.55,0,3.13-.72,3.18-2.17.12-2.93,2.25-3.35,4.2-4.12a9.91,9.91,0,0,1,1.89-.39l18,0c.75.44,1.51.86,2.24,1.33,1.7,1.07,3,2.39,2.9,4.62-4.58.47-9.19.75-13.74,1.45a125.14,125.14,0,0,0-26,6.72,2.69,2.69,0,0,1-.56-.21l.12-2.43c1.19-.9,2.68-1.44,2.91-2.32C313.43,234.7,315.31,234.71,317.53,235.11Z" transform="translate(-158.65 -209.21)"/><path class="cls-10" d="M359.31,220.55c-.52-2.05-1-4.1-1.7-6.75a20.17,20.17,0,0,1,12.51,5.59l-2.94,1.92.26.69c.58,0,1.17.05,1.74.13a43.67,43.67,0,0,1,4.73.82,24.38,24.38,0,0,1,5.4,2,17.39,17.39,0,0,1,3.21,3c0,1.94,0,3.89,0,5.83l-3.28.65c-3.43-1.15-6.85-2.32-10.3-3.43-2.7-.86-5.44-1.63-8.17-2.45l3-.92c-.17-1.62-.3-3-.43-4.23Z" transform="translate(-158.65 -209.21)"/><path class="cls-10" d="M385.16,253.65c-3.3,2.66-6.33,3.62-9.41,3.08-.74-2.54-1.26-5.07-2.19-7.43-1.08-2.69-1.6-5.24.2-7.76l-5.59-2.93c-.43-.52-1.46,1.06-1.68-.78.07-1.74,1.11-2.18,2.65-2.07,3.15.22,6.3.41,9.45.61l1.85,1.47c.18,3.87-1.61,7.2-2.94,10.66-.29.78-.56,1.57-.84,2.35l1,.32,4.24-12.64.27,0,.26,0c2.54,4.14,5.24,8.2,6,13.14-3.54.19-5.55-2.54-8.69-4.7l1.14,3.9C383,251,385,251.11,385.16,253.65Z" transform="translate(-158.65 -209.21)"/><path class="cls-11" d="M330.17,300c2.74,1.5,5.89,2.57,7,5.88.48,1.39,1.19,3.17.71,4.33-1.21,2.95-1.06,6-1.27,9a64.46,64.46,0,0,1-17.85-9.44c1.39-1.24,2.34-2.14,3.33-3C324.8,304.47,327.49,302.22,330.17,300Z" transform="translate(-158.65 -209.21)"/><path class="cls-12" d="M317.53,235.11c-2.22-.4-4.1-.41-4.87,2.45-.23.88-1.72,1.42-2.91,2.32l-.12,2.43a4.4,4.4,0,0,0-5.23.83l-20.72-1.85c.69-.43,1-.69,1.41-.88a140.14,140.14,0,0,1,26.07-9.11,50.86,50.86,0,0,1,7.12-.81C317.29,231.91,316.48,233.36,317.53,235.11Z" transform="translate(-158.65 -209.21)"/><path class="cls-13" d="M339.38,246.32l-7.23,1.83a2.84,2.84,0,0,0-4-.5l-8.07-1.49-9.66-1.79a1.41,1.41,0,0,1,0-.58c7.47-2.93,15.07-5.38,23.25-5.95l-6.45,4.27.28.31,8.72-3.46,1.7.39-2.29,3.73c2,2.48,3.81.24,6.47.44C340.83,244.81,340.1,245.56,339.38,246.32Z" transform="translate(-158.65 -209.21)"/><path class="cls-3" d="M242.59,296.28l.31-6.74,2.84-.28V313a14.38,14.38,0,0,1-9.07.66c-4.18-.91-6.15-4.19-5.86-9.08.27-4.56,3-7.81,7.1-8.26A44.73,44.73,0,0,1,242.59,296.28Zm-.06,3.47c-3.13-1.35-5.24-1-6.92,1s-1.79,6.28-.35,8.43,3.68,2.55,7.27,1.48Z" transform="translate(-158.65 -209.21)"/><path class="cls-14" d="M391.33,274.81l-2.18-1.09c-.24-.5-.34-1.22-.74-1.48a37.43,37.43,0,0,0-4.53-2.57c-3.52-1.65-7.1-3.18-10.65-4.76l.06,0a3.92,3.92,0,0,1-1.91-3.77c3.46-.85,6.63-1.71,9.84-2.4,1.59-.35,3.25-.41,5.29-.65a14.32,14.32,0,0,1,.38,3.25c-.19,1.5.48,2.16,1.69,2.8a45,45,0,0,1,4,2.63l.09,6.2Z" transform="translate(-158.65 -209.21)"/><path class="cls-15" d="M382.51,233.81c0-1.94,0-3.89,0-5.83,2.85.24,3.62,2.88,5.22,4.56a8.59,8.59,0,0,0,.54,1.55,54.75,54.75,0,0,1,6.94,26.25l-.24,1.84-2.39,1.3a22.21,22.21,0,0,0-2.86-11.12l0-.66c-1.48-3.46-2.9-6.95-4.48-10.37-.65-1.4-1.39-2.69-.81-4.27Z" transform="translate(-158.65 -209.21)"/><path class="cls-3" d="M273.92,305.17c0,6-3.41,9.34-8.93,8.78a6.71,6.71,0,0,1-6.25-5.07,14.28,14.28,0,0,1-.34-5.82c.73-4.85,3.8-7.21,8.42-6.87,4.3.31,6.89,3.22,7.1,8C273.93,304.51,273.92,304.84,273.92,305.17Zm-3.35.07a23.32,23.32,0,0,0-.31-2.88,4.28,4.28,0,0,0-4.19-3.53,3.83,3.83,0,0,0-4,3.27,18.41,18.41,0,0,0,0,5.88,4.12,4.12,0,0,0,8,.26A19.92,19.92,0,0,0,270.57,305.24Z" transform="translate(-158.65 -209.21)"/><path class="cls-3" d="M205,305.13c0,5.83-3.23,9.14-8.63,8.83a6.78,6.78,0,0,1-6.61-5,15,15,0,0,1-.54-5.52c.55-4.8,3.63-7.37,8.21-7.22s7.27,3.13,7.56,8C205,304.47,205,304.8,205,305.13Zm-3.22.17a28.48,28.48,0,0,0-.88-3.81,4,4,0,0,0-4.41-2.66c-2.51.31-4,2.69-3.94,6.34s1.48,5.9,4.12,6.13C199.69,311.56,201.5,309.37,201.74,305.3Z" transform="translate(-158.65 -209.21)"/><path class="cls-14" d="M405,264.83l-.48-.58c-.8-2-1.52-4.07-2.43-6-.64-1.38-1.8-1.37-3-.65l-3.31,2a44.25,44.25,0,0,0-2.23-15.92c-1.08-3.22-2.48-6.34-3.74-9.5a70.41,70.41,0,0,1,15.48,26.41C405.71,261.8,405.13,263.39,405,264.83Z" transform="translate(-158.65 -209.21)"/><path class="cls-3" d="M283.06,296.2l3.46.54c.34,2,.34,2-3.84,2.94v13.84l-3.2.16V300l-2.76-1.37c-.79-2.2,1.18-1.91,2.14-2.48,1.58-7,3.27-7.91,9.06-6.8.51,1.62-.32,2.05-1.78,2.28C283.05,292.14,282.66,292.79,283.06,296.2Z" transform="translate(-158.65 -209.21)"/><path class="cls-16" d="M295.7,270.82l-5.08-1.39c-1.77-1.79,0-4.4-.66-7.19l3,.21-.54-2.18c2.94,2.25,5.92,4.45,8.79,6.79A12.07,12.07,0,0,1,303,269.6c.16,1.4.38,2.79.47,4.2s.62,3.06-1.45,4.39a13.2,13.2,0,0,1-1.68-2.94c-.56-2.2-1-4.34-4.06-3.71C296.16,271.57,295.9,271.07,295.7,270.82Z" transform="translate(-158.65 -209.21)"/><path class="cls-16" d="M344.74,222.5c.05,1.59.09,3.18.14,4.77-4.56,0-9.12-.16-13.68-.09a3.58,3.58,0,0,1-3.69-2c0-.79-.3-1.78.06-2.34a39.62,39.62,0,0,1,3.25-3.89c2.6.35,5.77-.6,7.82,2.67l-.59,1.87c1.36,1.61,2.58.59,3.86,0C342.82,223.08,343.8,222.83,344.74,222.5Z" transform="translate(-158.65 -209.21)"/><path class="cls-17" d="M342.19,209.83a42.09,42.09,0,0,1,4.9.46c2.87.58,3.44,1.56,3,5.1h-5.38l.81,2c-2.72,2.89-4.28,3-7.15.63a8.59,8.59,0,0,0-2.47-1.39,17.33,17.33,0,0,0-3.14-.42l7.12-2.47.51-1.24-2.29-1.26-.71-1.17Z" transform="translate(-158.65 -209.21)"/><path class="cls-3" d="M224.87,289.3v15.33c0,.88,0,1.76,0,2.64.08,3.1.26,3.33,3.46,4.4.39,1.19.24,2-1.32,2.23-2.74.37-5.25-1.28-5.33-4.11-.19-6.69-.06-13.38-.06-20.28Z" transform="translate(-158.65 -209.21)"/><path class="cls-18" d="M277,271.58l3.56,2-.75,1.95-2.12-1a10.53,10.53,0,0,0-.24,3.11c.68,2.62,1.56,5.19,2.36,7.78a16.31,16.31,0,0,1-8.84-3.07l.48-.43-3.69-5,2.41.62,3-4C275.07,274.12,276,272.77,277,271.58Z" transform="translate(-158.65 -209.21)"/><path class="cls-12" d="M279.8,285.42c-.8-2.59-1.68-5.16-2.36-7.78a10.53,10.53,0,0,1,.24-3.11l2.12,1c.11,1.31.22,2.62.34,3.93a5,5,0,0,0,3.93,4.72c2.21.61,4.12.56,5.34-1.82.18-.34.91-.39,1.58-.66a18.68,18.68,0,0,1,.69,1.93c.41,1.75,1.05,3,3.27,2.86,1.1-.06,2.24.64,3.36,1l-.59.55c-.41,1.19-1.18,1.2-2.31,1-4.34-.85-8.71-1.52-13.05-2.36A10.59,10.59,0,0,1,279.8,285.42Z" transform="translate(-158.65 -209.21)"/><path class="cls-19" d="M318.28,230.49a50.86,50.86,0,0,0-7.12.81,140.14,140.14,0,0,0-26.07,9.11c-.38.19-.72.45-1.41.88l20.72,1.85-.74,1.23c-7.41-1.56-14.92-1.4-22.43-1.26l-.8-2.69a16.6,16.6,0,0,0,3.49-.82,149.15,149.15,0,0,1,28.69-9.78,16.36,16.36,0,0,0,2.94-1.32C318.28,228.61,318.3,228.63,318.28,230.49Z" transform="translate(-158.65 -209.21)"/><path class="cls-3" d="M218.06,295.9l.22,3.06c-5,1.3-5.44,1.9-5.51,6.86,0,2.42,0,4.84,0,7.59l-3.14.35V296.82c2-1.34,2.43.32,2.94,1.35Z" transform="translate(-158.65 -209.21)"/><path class="cls-4" d="M352.72,235c.13-.95.25-1.9.36-2.72,1.89-.19,3.92.94,4.1-1.79,1.16-.17,2.38-.7,3.45-.46,4.27.94,8.52,2,12.71,3.26a33.89,33.89,0,0,1,5,2.35l-15.12-1.8-.64.72c-1.2-1.51-2.63-1.21-4.23-.74C356.51,234.35,354.6,234.62,352.72,235Z" transform="translate(-158.65 -209.21)"/><path class="cls-20" d="M330.17,300c-2.68,2.25-5.37,4.5-8,6.76-1,.85-1.94,1.75-3.33,3a64.46,64.46,0,0,0,17.85,9.44c-.18,1.14-.35,2.28-.53,3.42.22-1.66-.58-2.56-2-3.31-5.07-2.61-10.28-5-15-8.15a96.94,96.94,0,0,1-11.66-9.5c-2.34-2.13-4.23-4.75-6.42-7.05-.41-.43-1.33-.36-2-.52.25-1.54.49-3.08.74-4.63,1.08,3.57,3.34,6.36,5.87,9a74.22,74.22,0,0,0,12.13,10.73c3.85-3.11,7.6-6.11,11.3-9.16.29-.23.3-.79.44-1.2Z" transform="translate(-158.65 -209.21)"/><path class="cls-20" d="M298.9,311.41l7.81,4.86c.56.34,1.13.65,2.12,1.21l6.55-6,.46.47L310,318.08c6.58,4.3,13.77,6,20.65,8.33l-.36,1.53c-1.06-.53-2.09-1.16-3.19-1.6-5.2-2.07-10.4-4.15-15.65-6.11a29.41,29.41,0,0,0-4.44-1c-2.32-1.78-4.7-3.49-6.92-5.39C299.48,313.34,299.3,312.25,298.9,311.41Z" transform="translate(-158.65 -209.21)"/><path class="cls-21" d="M360.07,281.45c11,.19,21.59-1.39,31.66-6l.62,1.43a9.63,9.63,0,0,0-2.24.39c-9.79,4.15-20.16,5.08-30.61,5.6Z" transform="translate(-158.65 -209.21)"/><path class="cls-22" d="M342.19,209.83l-4.78.21.71,1.17-6.62.72,2.61-1.83h-2.72l-5.91,3.43c-1.06-2.44-2.9-2.64-4.65-3,5.29-.45,10.59-1,15.89-1.3A31,31,0,0,1,342.19,209.83Z" transform="translate(-158.65 -209.21)"/><path class="cls-23" d="M348.71,242.39c-.81-.14-1.62-.31-2.44-.42s-1.82-.17-2.73-.25l-.38-.84q2.7-2.61,5.38-5.24l.8,0c-1.39,2.54.42,3.15,1.84,3.88V243Z" transform="translate(-158.65 -209.21)"/><path class="cls-24" d="M389.81,234.14c1.26,3.16,2.66,6.28,3.74,9.5a44.25,44.25,0,0,1,2.23,15.92l-.56.78a54.75,54.75,0,0,0-6.94-26.25,8.59,8.59,0,0,1-.54-1.55Z" transform="translate(-158.65 -209.21)"/><path class="cls-4" d="M390.49,326.56l4.61-1.95,2.35-1.1c-1.35,3.89-3.64,6.18-5.73,9C390,330.4,390.25,328.48,390.49,326.56Z" transform="translate(-158.65 -209.21)"/><path class="cls-24" d="M362.58,234.56l.64-.72,15.12,1.8.29.18a5.09,5.09,0,0,0,0,.55c-3.15-.2-6.3-.39-9.45-.61-1.54-.11-2.58.33-2.65,2.07h-3.43C362.91,236.85,362.75,235.71,362.58,234.56Z" transform="translate(-158.65 -209.21)"/><path class="cls-25" d="M327.51,225.16a3.58,3.58,0,0,0,3.69,2c4.56-.07,9.12,0,13.68.09l-.06,1.13-18,0C327,227.34,327.28,226.25,327.51,225.16Z" transform="translate(-158.65 -209.21)"/><path class="cls-19" d="M392.59,263.48l2.39-1.3.88,2.2c-.49,2.85-1,5.69-1.46,8.54l-1.74.08-.09-6.2h2.62Z" transform="translate(-158.65 -209.21)"/><path class="cls-20" d="M310.4,244.37l9.66,1.79,8.07,1.49L325.51,249a8.22,8.22,0,0,0-2.29-1.19c-5-.78-10-1.44-15-2.14Z" transform="translate(-158.65 -209.21)"/><path class="cls-26" d="M303,269.6a12.07,12.07,0,0,0-1.84-2.54c-2.87-2.34-5.85-4.54-8.79-6.79l-2.69-2.67,1.35-1.3A31.09,31.09,0,0,0,305,267.61Z" transform="translate(-158.65 -209.21)"/><path class="cls-27" d="M310,284c-4.66.23-7.91-3.53-12.15-2.56C300.24,279.49,305.75,280.66,310,284Z" transform="translate(-158.65 -209.21)"/><path class="cls-28" d="M389.76,251.7l0,.66c-1.64,0-3.37-.26-4.57,1.29-.18-2.54-2.19-2.67-4.22-2.78L379.8,247c3.14,2.16,5.15,4.89,8.69,4.7Z" transform="translate(-158.65 -209.21)"/><path class="cls-29" d="M395.86,264.38a17.54,17.54,0,0,1,8.09,3.08L395,274.23l-.62-1.31C394.89,270.07,395.37,267.23,395.86,264.38Z" transform="translate(-158.65 -209.21)"/><path class="cls-30" d="M277.85,245.79A71.84,71.84,0,0,0,275.09,267a5,5,0,0,0-.55,0c0-3.72-.11-7.44,0-11.15a18.09,18.09,0,0,1,.84-4.47c.73-2.54,1.43-5.05.52-7.68Z" transform="translate(-158.65 -209.21)"/><path class="cls-19" d="M373.23,264.91c3.55,1.58,7.13,3.11,10.65,4.76a37.43,37.43,0,0,1,4.53,2.57c.4.26.5,1,.74,1.48-4.62-2.44-9.25-4.87-13.85-7.34A19.89,19.89,0,0,1,373.23,264.91Z" transform="translate(-158.65 -209.21)"/><path class="cls-31" d="M310.39,243.79l-.2-1.27a125.14,125.14,0,0,1,26-6.72c4.55-.7,9.16-1,13.74-1.45-4.65,1.55-9,4.49-14.46,3.74l.69.87-8.72,3.46-.28-.31,6.45-4.27C325.46,238.41,317.86,240.86,310.39,243.79Z" transform="translate(-158.65 -209.21)"/><path class="cls-24" d="M378.34,235.64a33.89,33.89,0,0,0-5-2.35c-4.19-1.24-8.44-2.32-12.71-3.26-1.07-.24-2.29.29-3.45.46l1.65-4,1.93,2.11c2.73.82,5.47,1.59,8.17,2.45,3.45,1.11,6.87,2.28,10.3,3.43l-.6,1.36Z" transform="translate(-158.65 -209.21)"/><path class="cls-19" d="M382.46,238.53l2-1.47c-.58,1.58.16,2.87.81,4.27,1.58,3.42,3,6.91,4.48,10.37l-1.27,0C387.7,246.73,385,242.67,382.46,238.53Z" transform="translate(-158.65 -209.21)"/><path class="cls-19" d="M380.44,237.84l1.49.69-4.24,12.64-1-.32c.28-.78.55-1.57.84-2.35C378.83,245,380.62,241.71,380.44,237.84Z" transform="translate(-158.65 -209.21)"/></svg>