<svg id="Layer_1" data-name="Layer 1" xmlns="http://www.w3.org/2000/svg" viewBox="0 0 746.04 162.67"><defs><style>.cls-1{fill:#efede5;}.cls-2{fill:#c99f2d;}</style></defs><title>RA18_LOGO_LIGHT</title><path class="cls-1" d="M437.28,81.18V18.52h6.15v81.77L384.57,35.43V98h-6.32V16.25Z" transform="translate(0.03 -0.02)"/><path class="cls-1" d="M240.4,98.13c-3.39,0-6.47.05-9.54,0a2.28,2.28,0,0,1-1.41-1q-11.41-16-22.73-32a2.61,2.61,0,0,0-2.59-1.27c-3.32.13-6.65.05-10.13.05V98h-8.23V18.51c.33,0,.69-.08,1.06-.08,7.09.07,14.18,0,21.26.29a24,24,0,0,1,14.85,5.47c5.4,4.59,7,10.65,6.44,17.39-.72,8.74-5.6,14.68-13.16,18.66-.64.34-1.29.65-2.08,1ZM194,23.34V59.23c3.59-.21,7.11-.18,10.54-.68a18,18,0,0,0,11.4-6c4-4.68,5-10.14,3.95-16.06a14.38,14.38,0,0,0-12.85-12.37C202.8,23.55,198.48,23.57,194,23.34Z" transform="translate(0.03 -0.02)"/><path class="cls-1" d="M643.31,35l-9.25,1.11c-.23-1.46-.37-2.86-.67-4.22-1.52-6.71-6-10.18-12.92-10.19-12,0-14.9,11.44-11.62,18.68,1.85,4.08,5,7,8.68,9.36,4.13,2.72,8.37,5.27,12.56,7.91,4,2.51,7.86,5.2,10.88,8.87,6.72,8.14,5.58,19.45-2.61,26.4-5.52,4.69-12,6.61-19.17,6.57-5.81,0-11.28-1.25-16-4.84-5.61-4.28-8-10.11-7.84-17.19l9.21-1.12c.37,2.38.59,4.63,1.08,6.83,1.59,7.11,6.35,11.17,13.65,11.63A18.32,18.32,0,0,0,629,93.06a14.15,14.15,0,0,0,4.18-21.9,43.74,43.74,0,0,0-9.86-7.9c-4.51-2.85-9.05-5.64-13.45-8.65a25.33,25.33,0,0,1-8.38-9.52,18.22,18.22,0,0,1,5.19-23.26c7.9-6.12,20.94-6.53,29.13-.89a17,17,0,0,1,7.48,12.28A14.44,14.44,0,0,1,643.31,35Z" transform="translate(0.03 -0.02)"/><path class="cls-1" d="M557.32,16.19l34.6,81.94c-2.91,0-5.64,0-8.36,0-.32,0-.76-.58-.93-1q-4.78-11.22-9.52-22.47c-1-2.37-1-2.37-3.52-2.37-9.82,0-19.65,0-29.47,0a1.74,1.74,0,0,0-1.9,1.21c-3.46,7.88-7,15.73-10.45,23.61a1.51,1.51,0,0,1-1.7,1.09c-1.58-.07-3.15,0-4.94,0Zm12.6,50.67-14-33-14.76,33Z" transform="translate(0.03 -0.02)"/><path class="cls-1" d="M675.22,98.13l36.19-81.94L746,98.13c-2.91,0-5.63,0-8.35,0-.32,0-.76-.58-.93-1-3.31-7.76-6.62-15.51-9.84-23.3a2.18,2.18,0,0,0-2.41-1.59q-15.06.09-30.12,0a2,2,0,0,0-2.14,1.44c-3.45,7.83-7,15.64-10.4,23.48a1.36,1.36,0,0,1-1.49,1C678.71,98.09,677.09,98.13,675.22,98.13ZM724,66.87l-14-33.05c-5,11.13-9.85,22-14.77,33.05Z" transform="translate(0.03 -0.02)"/><path class="cls-1" d="M291.19,92.3v5.77H249.46V18.5h40.83v5.77H257.78v29h26.66v5.45H257.83V92.3Z" transform="translate(0.03 -0.02)"/><path class="cls-1" d="M465.69,92.31h33.42v5.75H457.39V18.54h40.75v5.7H465.69v29H492.4v5.44H465.69Z" transform="translate(0.03 -0.02)"/><path class="cls-1" d="M311.53,58.68V98.06h-8.22V18.5h40.74v5.75h-32.4v29h26.67v5.45Z" transform="translate(0.03 -0.02)"/><path class="cls-1" d="M657,18.48h8.16V98.07H657Z" transform="translate(0.03 -0.02)"/><path class="cls-1" d="M364.34,98.09h-8.08V18.5h8.08Z" transform="translate(0.03 -0.02)"/><path class="cls-1" d="M294.15,119c7.44,0,12.86,5.7,12.94,13.71.08,7.7-5.69,13.83-13.14,13.78-7.73-.06-12.85-5.86-12.9-13.6C281,124.92,286.58,119,294.15,119Zm9.76,13.95a13.42,13.42,0,0,0-3.17-9,9.17,9.17,0,0,0-14.47.71c-3.29,4.89-2.71,12.75,1.28,17.17a9.15,9.15,0,0,0,14.23-.91A13.38,13.38,0,0,0,303.91,132.92Z" transform="translate(0.03 -0.02)"/><path class="cls-1" d="M194,131.63c.72.15,1.43.25,2.12.45a6.34,6.34,0,0,1,3.53,10.14,9,9,0,0,1-5.9,3.5,13.48,13.48,0,0,1-2.28.25c-1.87,0-3.74,0-5.69,0V119.27c3,.16,5.92.17,8.82.53a5,5,0,0,1,4.56,4.34,5.88,5.88,0,0,1-2.46,5.93A20.36,20.36,0,0,1,194,131.63Zm-5.53,12.56c1.46,0,2.78.09,4.09,0a5.75,5.75,0,0,0,5.24-5.08c.26-3.17-1.23-5.5-4.17-6.13a36.51,36.51,0,0,0-5.07-.41c-.05.44-.09.65-.09.85Zm0-13.33c3.3.56,5.75-.31,7-2.41a5.2,5.2,0,0,0-.25-5.66c-1.84-2.19-4.36-1.56-6.75-1.64Z" transform="translate(0.03 -0.02)"/><path class="cls-1" d="M355.86,119.46h2.53c0,.47.06.92.06,1.37,0,4.78,0,9.56,0,14.34a18.88,18.88,0,0,0,.3,3.44c.76,4.23,4.14,6.33,8.72,5.48,3.77-.71,5.76-3.38,5.8-8,0-5,0-10.08,0-15.12v-1.48h2.06v2c0,4.83.05,9.65,0,14.48a11.89,11.89,0,0,1-2.12,7.11,7.4,7.4,0,0,1-4.65,2.93c-3.82.77-7.5.62-10.47-2.37a9.05,9.05,0,0,1-2.33-6.59c-.08-5.68,0-11.36,0-17A3.71,3.71,0,0,1,355.86,119.46Z" transform="translate(0.03 -0.02)"/><path class="cls-1" d="M341.3,125.77l-2.93.42c-.1-.08-.21-.12-.22-.19-1-6.19-8.49-6.6-12.3-3-5.1,4.8-4.34,15.28,1.46,19.16,4.23,2.83,9.67,2,13.29-1.94.31-.34.6-.7,1.08-1.27a8.26,8.26,0,0,1-4.88,6.5,12,12,0,0,1-16.74-8.78c-1-4.83-.37-9.41,2.88-13.38a12.11,12.11,0,0,1,14.38-3.13A6.74,6.74,0,0,1,341.3,125.77Z" transform="translate(0.03 -0.02)"/><path class="cls-1" d="M476.19,124.87l-3.17.41a20.84,20.84,0,0,0-.72-2.37,4.28,4.28,0,0,0-5.51-2.15,4,4,0,0,0-2.59,4.91,7.88,7.88,0,0,0,2.17,3.34c1.54,1.32,3.41,2.25,5.08,3.43a23.45,23.45,0,0,1,3.48,2.78A5.66,5.66,0,0,1,476,142c-1.51,3.17-4.4,4.32-7.66,4.44-2.91.11-5.68-.58-7.31-3.3a21.21,21.21,0,0,1-1.41-3.93l3.21-.43a29.65,29.65,0,0,0,.92,3.24,4.64,4.64,0,0,0,4.92,2.91,4.87,4.87,0,0,0,4.74-3.09,4.34,4.34,0,0,0-1.31-5.21c-1.51-1.29-3.26-2.31-4.87-3.49a30.21,30.21,0,0,1-4.19-3.31,5.81,5.81,0,0,1-1.35-6.5,6.7,6.7,0,0,1,5.92-4.22c3.07-.3,5.83.26,7.56,3.13A15.89,15.89,0,0,1,476.19,124.87Z" transform="translate(0.03 -0.02)"/><path class="cls-1" d="M389.46,139.12l2.89-.36a37.93,37.93,0,0,0,1.16,3.63c.9,2.08,2.81,2.5,4.79,2.48a4.74,4.74,0,0,0,4.65-3,4.28,4.28,0,0,0-1.07-5.05,33.9,33.9,0,0,0-3.74-2.86c-1.39-1-2.91-1.79-4.23-2.86-2.73-2.18-3.71-5.1-2.74-7.64,1.11-2.89,4-4.6,7.48-4.46,3.8.15,6.35,2.11,6.85,5.29a4.19,4.19,0,0,1,0,.62l-3.06.38c-.07-.42-.1-.71-.16-1-.35-1.75-1.16-3.19-3-3.6s-3.46-.31-4.69,1.23a4,4,0,0,0-.42,5,15,15,0,0,0,3.42,3.36c1.69,1.28,3.62,2.24,5.33,3.51,2.89,2.13,4,4.81,2.86,7.51a8.07,8.07,0,0,1-2.58,3.36,9.57,9.57,0,0,1-9.71.92C390.74,144.44,389.62,142.16,389.46,139.12Z" transform="translate(0.03 -0.02)"/><path class="cls-1" d="M519.23,118.68,530.75,146a15,15,0,0,0-1.79,0c-1,.15-1.33-.32-1.66-1.14-.83-2.14-1.81-4.23-2.65-6.36a1.52,1.52,0,0,0-1.67-1.17c-2.94.07-5.89.05-8.84,0a1.37,1.37,0,0,0-1.53,1c-.87,2.13-1.85,4.21-2.78,6.31-.68,1.53-.68,1.53-2.59,1.22Zm4.17,16.84-4.63-11-4.89,11Z" transform="translate(0.03 -0.02)"/><path class="cls-1" d="M448.91,145.92c-2.88.15-2.88.15-3.88-2.21-.73-1.73-1.52-3.43-2.18-5.18a1.57,1.57,0,0,0-1.76-1.21c-2.9.07-5.8.06-8.7,0a1.46,1.46,0,0,0-1.63,1c-.85,2-1.86,4-2.64,6.09-.49,1.31-1.2,1.85-2.7,1.39,3.95-8.94,7.9-17.9,12-27.15Zm-16.84-10.43h9.51L437,124.56Z" transform="translate(0.03 -0.02)"/><path class="cls-1" d="M234.33,119.55c-.28.45-.5.85-.76,1.22-2.84,4.21-5.71,8.4-8.51,12.63a3.9,3.9,0,0,0-.6,2c-.06,3.08,0,6.15,0,9.23v1.29h-2.75c0-3.18-.08-6.29,0-9.39a6.52,6.52,0,0,0-1.32-4.25c-2.7-3.78-5.27-7.65-7.9-11.49-.25-.37-.49-.76-.88-1.37a18.73,18.73,0,0,1,2.75,0,2,2,0,0,1,1.12.86c2.41,3.52,4.78,7.06,7.17,10.6.24.34.5.66.83,1.1L229,123.9a31.61,31.61,0,0,0,2.13-3.19C231.86,119.32,232.91,119.21,234.33,119.55Z" transform="translate(0.03 -0.02)"/><path class="cls-1" d="M257.94,145.93h-2.72V119.49h13.47v1.87H258v9.71h8.78v1.77h-8.82Z" transform="translate(0.03 -0.02)"/><path class="cls-1" d="M491.47,119.49H494v26.42h-2.53Z" transform="translate(0.03 -0.02)"/><path class="cls-2" d="M81.31,81.34v0Z" transform="translate(0.03 -0.02)"/><path class="cls-2" d="M81.3,81.35l0,0Z" transform="translate(0.03 -0.02)"/><path class="cls-2" d="M81.31,0a81.34,81.34,0,1,0,81.33,81.34A81.43,81.43,0,0,0,81.31,0Zm0,155.07A73.73,73.73,0,1,1,155,81.36,73.81,73.81,0,0,1,81.31,155.09Z" transform="translate(0.03 -0.02)"/><path class="cls-2" d="M81.31,47.06a34.3,34.3,0,1,0,34.3,34.3A34.3,34.3,0,0,0,81.31,47.06Zm0,60.54a26.24,26.24,0,1,1,26.24-26.24A26.24,26.24,0,0,1,81.31,107.6Z" transform="translate(0.03 -0.02)"/><path class="cls-2" d="M43.09,86.92c-.17-1.17-.3-2.36-.36-3.56H12.36a69,69,0,0,0,.92,9.49Z" transform="translate(0.03 -0.02)"/><path class="cls-2" d="M61.54,48.18c1-.61,2.08-1.18,3.16-1.7L53.07,18.41a67.73,67.73,0,0,0-8.41,4.5Z" transform="translate(0.03 -0.02)"/><path class="cls-2" d="M50.34,58.27c.72-1,1.48-1.88,2.28-2.77L31.14,34a67.91,67.91,0,0,0-6.05,7.37Z" transform="translate(0.03 -0.02)"/><path class="cls-2" d="M43.86,71.87c.29-1.16.65-2.3,1-3.43L16.82,56.81a68.3,68.3,0,0,0-2.76,9.13Z" transform="translate(0.03 -0.02)"/><path class="cls-2" d="M46.43,64.75c.52-1.08,1.08-2.13,1.69-3.16L22.86,44.71a67.73,67.73,0,0,0-4.5,8.41Z" transform="translate(0.03 -0.02)"/><path class="cls-2" d="M42.73,79.36c.06-1.2.19-2.39.36-3.56L13.28,69.87a69,69,0,0,0-.92,9.49Z" transform="translate(0.03 -0.02)"/><path class="cls-2" d="M68.39,45c1.12-.39,2.26-.74,3.43-1l-5.93-29.8a69.8,69.8,0,0,0-9.13,2.76Z" transform="translate(0.03 -0.02)"/><path class="cls-2" d="M55.45,52.67c.88-.8,1.81-1.56,2.76-2.27L41.34,25.14A69.11,69.11,0,0,0,34,31.19Z" transform="translate(0.03 -0.02)"/><path class="cls-2" d="M114.49,61.59c.61,1,1.18,2.08,1.69,3.16l28.08-11.63a69.84,69.84,0,0,0-4.5-8.41Z" transform="translate(0.03 -0.02)"/><path class="cls-2" d="M110,55.5c.8.89,1.56,1.81,2.28,2.77l25.26-16.88A69.11,69.11,0,0,0,131.48,34Z" transform="translate(0.03 -0.02)"/><path class="cls-2" d="M75.74,43.14c1.18-.17,2.36-.29,3.57-.35V12.41a68.71,68.71,0,0,0-9.49.92Z" transform="translate(0.03 -0.02)"/><path class="cls-2" d="M145.79,56.81,117.71,68.45c.4,1.12.75,2.26,1,3.42l29.81-5.93A68.78,68.78,0,0,0,145.79,56.81Z" transform="translate(0.03 -0.02)"/><path class="cls-2" d="M104.4,50.4c1,.71,1.88,1.47,2.77,2.27l21.48-21.48a69.11,69.11,0,0,0-7.37-6.05Z" transform="translate(0.03 -0.02)"/><path class="cls-2" d="M83.31,42.79c1.2.06,2.39.18,3.56.35L92.8,13.33a69,69,0,0,0-9.49-.92Z" transform="translate(0.03 -0.02)"/><path class="cls-2" d="M90.8,43.91q1.74.45,3.42,1.05l11.63-28.09a69.8,69.8,0,0,0-9.13-2.76Z" transform="translate(0.03 -0.02)"/><path class="cls-2" d="M97.92,46.48c1.08.52,2.13,1.09,3.15,1.7L118,22.91a69.19,69.19,0,0,0-8.41-4.5Z" transform="translate(0.03 -0.02)"/><path class="cls-2" d="M107.17,110.05c-.89.8-1.81,1.56-2.77,2.27l16.88,25.26a69.11,69.11,0,0,0,7.37-6.05Z" transform="translate(0.03 -0.02)"/><path class="cls-2" d="M116.18,98c-.51,1.08-1.08,2.13-1.69,3.16L139.76,118a69.84,69.84,0,0,0,4.5-8.41Z" transform="translate(0.03 -0.02)"/><path class="cls-2" d="M112.27,104.45c-.72,1-1.48,1.88-2.28,2.77l21.49,21.48a69.11,69.11,0,0,0,6.05-7.37Z" transform="translate(0.03 -0.02)"/><path class="cls-2" d="M44.9,94.27c-.39-1.12-.75-2.26-1-3.42l-29.8,5.93a68.74,68.74,0,0,0,2.76,9.13Z" transform="translate(0.03 -0.02)"/><path class="cls-2" d="M94.22,117.76q-1.68.6-3.42,1l5.92,29.8a69.8,69.8,0,0,0,9.13-2.76Z" transform="translate(0.03 -0.02)"/><path class="cls-2" d="M119.53,75.8c.17,1.17.29,2.36.35,3.56h30.37a69,69,0,0,0-.92-9.49Z" transform="translate(0.03 -0.02)"/><path class="cls-2" d="M119.88,83.36c-.06,1.2-.18,2.39-.35,3.56l29.8,5.93a69,69,0,0,0,.92-9.49Z" transform="translate(0.03 -0.02)"/><path class="cls-2" d="M118.75,90.85c-.29,1.16-.64,2.3-1,3.42l28.08,11.64a68.78,68.78,0,0,0,2.77-9.13Z" transform="translate(0.03 -0.02)"/><path class="cls-2" d="M101.07,114.54c-1,.61-2.07,1.18-3.15,1.7l11.63,28.07a69.19,69.19,0,0,0,8.41-4.5Z" transform="translate(0.03 -0.02)"/><path class="cls-2" d="M86.87,119.58c-1.17.17-2.36.29-3.56.35v30.38a69,69,0,0,0,9.49-.92Z" transform="translate(0.03 -0.02)"/><path class="cls-2" d="M48.12,101.13c-.61-1-1.17-2.08-1.69-3.16L18.36,109.6a67.73,67.73,0,0,0,4.5,8.41Z" transform="translate(0.03 -0.02)"/><path class="cls-2" d="M58.21,112.32c-1-.71-1.88-1.47-2.76-2.27L34,131.53a69.11,69.11,0,0,0,7.37,6.05Z" transform="translate(0.03 -0.02)"/><path class="cls-2" d="M52.62,107.22c-.8-.89-1.56-1.81-2.28-2.77L25.09,121.33a67.91,67.91,0,0,0,6.05,7.37Z" transform="translate(0.03 -0.02)"/><path class="cls-2" d="M79.31,119.93c-1.21-.06-2.39-.18-3.57-.35l-5.92,29.81a68.71,68.71,0,0,0,9.49.92Z" transform="translate(0.03 -0.02)"/><path class="cls-2" d="M64.7,116.24c-1.08-.52-2.14-1.09-3.16-1.7L44.66,139.81a67.73,67.73,0,0,0,8.41,4.5Z" transform="translate(0.03 -0.02)"/><path class="cls-2" d="M71.82,118.81c-1.17-.3-2.31-.65-3.43-1L56.76,145.85a69.8,69.8,0,0,0,9.13,2.76Z" transform="translate(0.03 -0.02)"/></svg>