<svg id="Layer_1" data-name="Layer 1" xmlns="http://www.w3.org/2000/svg" viewBox="0 0 409.6 346.04"><defs><style>.cls-1{fill:#67ef8e;}.cls-2{fill:#62dd82;}.cls-3{fill:#59c976;}.cls-4{fill:#4dba71;}</style></defs><title>jade-pink</title><path class="cls-1" d="M791.1,642.25,707.8,882.37,912.6,642.25Zm0,0" transform="translate(-503 -536.32)"/><path class="cls-2" d="M587.75,536.32,503,642.25H624.5Zm0,0" transform="translate(-503 -536.32)"/><path class="cls-2" d="M791.1,642.25H912.6L827.86,536.32Zm0,0" transform="translate(-503 -536.32)"/><path class="cls-2" d="M791.1,642.25,707.8,536.32,624.5,642.25Zm0,0" transform="translate(-503 -536.32)"/><path class="cls-3" d="M707.8,536.32h-120L624.5,642.25Zm0,0" transform="translate(-503 -536.32)"/><path class="cls-1" d="M827.86,536.32H707.8l83.3,105.93Zm0,0" transform="translate(-503 -536.32)"/><path class="cls-3" d="M624.5,642.25l83.3,240.12,83.3-240.12Zm0,0" transform="translate(-503 -536.32)"/><path class="cls-4" d="M503,642.25,707.8,882.37,624.5,642.25Zm0,0" transform="translate(-503 -536.32)"/></svg>