<svg id="Layer_1" data-name="Layer 1" xmlns="http://www.w3.org/2000/svg" viewBox="0 0 286.64 203.36"><defs><style>.cls-1{fill:#f2a5a5;}.cls-2{fill:#bcefa8;}.cls-3{fill:#a6e090;}.cls-4{fill:#ce8282;}.cls-5{fill:#9acc87;}</style></defs><title>lotus</title><path class="cls-1" d="M709.28,788.24a.48.48,0,0,0,.32-.08c-.08-.08-.08-.16-.16-.16s-.08.16-.16.24Zm0,0" transform="translate(-565.28 -616.88)"/><path class="cls-1" d="M769.84,759h-.24l.16.16c.08,0,.08-.08.08-.16Zm0,0" transform="translate(-565.28 -616.88)"/><path class="cls-2" d="M708.48,616.88a143.26,143.26,0,0,0,0,202.56v.08a143.36,143.36,0,0,0,0-202.64Zm0,0" transform="translate(-565.28 -616.88)"/><path class="cls-1" d="M647.12,759.12v.16c.08-.08.16-.08.16-.16Zm0,0" transform="translate(-565.28 -616.88)"/><path class="cls-1" d="M740.48,739.52c-.08,0-.08.08-.16.08a.29.29,0,0,1,.24.08c-.08,0-.08-.08-.08-.16Zm0,0" transform="translate(-565.28 -616.88)"/><path class="cls-3" d="M627.12,634c-28.8,73.68,7.68,156.72,81.36,185.52v.08A143.28,143.28,0,0,0,627.12,634Zm0,0" transform="translate(-565.28 -616.88)"/><path class="cls-1" d="M628.08,788.88c0,.08.08.08.08.16a.28.28,0,0,1,.08-.16Zm0,0" transform="translate(-565.28 -616.88)"/><path class="cls-1" d="M676.16,739.52c.08,0,.08.08.16.08a.29.29,0,0,0-.24.08.28.28,0,0,0,.08-.16Zm0,0" transform="translate(-565.28 -616.88)"/><path class="cls-3" d="M789.44,634a143.18,143.18,0,0,1-81.36,185.52v.08c-28.72-73.76,7.68-156.88,81.36-185.6Zm0,0" transform="translate(-565.28 -616.88)"/><path class="cls-1" d="M788.56,788.88c0,.08-.08.08-.08.16a.28.28,0,0,0-.08-.16Zm0,0" transform="translate(-565.28 -616.88)"/><path class="cls-4" d="M709.2,733.28l-.16.16h.24a.25.25,0,0,0-.08-.16Zm0,0" transform="translate(-565.28 -616.88)"/><path class="cls-5" d="M565.28,676.16c-.08,79,64.08,143.2,143.2,143.2l.08.08A143.29,143.29,0,0,0,565.28,676.16Zm0,0" transform="translate(-565.28 -616.88)"/><path class="cls-4" d="M622.4,820.16c.08,0,.08.08.16.08V820a.17.17,0,0,1-.16.16Zm0,0" transform="translate(-565.28 -616.88)"/><path class="cls-4" d="M707.92,733.28l.16.16h-.24c.08,0,.08-.08.08-.16Zm0,0" transform="translate(-565.28 -616.88)"/><path class="cls-5" d="M851.92,676.16c.08,79-64.08,143.2-143.2,143.2l-.08.08A143.29,143.29,0,0,1,851.92,676.16Zm0,0" transform="translate(-565.28 -616.88)"/><path class="cls-4" d="M794.72,820.16c-.08,0-.08.08-.16.08V820Zm0,0" transform="translate(-565.28 -616.88)"/></svg>