<svg id="Layer_1" data-name="Layer 1" xmlns="http://www.w3.org/2000/svg" viewBox="0 0 298.73 199.19"><defs><style>.cls-1{fill:#61bfff;}.cls-2{fill:#4276a5;}.cls-3{fill:#63a7e5;}</style></defs><title>silk</title><polyline class="cls-1" points="0 0 298.73 0 298.73 11.15 282.63 11.15 282.63 18.8 298.73 18.8 298.73 29.96 282.63 29.96 282.63 37.61 298.73 37.61 298.73 48.76 282.63 48.76 282.63 56.42 298.73 56.42 298.73 67.56 282.63 67.56 282.63 75.22 298.73 75.22 298.73 86.37 282.63 86.37 282.63 94.03 298.73 94.03 298.73 105.17 282.63 105.17 282.63 112.83 298.73 112.83 298.73 123.98 282.63 123.98 282.63 131.63 298.73 131.63 298.73 142.78 282.63 142.78 282.63 150.43 298.73 150.43 298.73 161.59 282.63 161.59 282.63 169.24 298.73 169.24 298.73 180.38 282.63 180.38 282.63 188.04 298.73 188.04 298.73 199.19 0 199.19 0 188.04 16.09 188.04 16.09 180.38 0 180.38 0 169.24 16.09 169.24 16.09 161.59 0 161.59 0 150.43 16.09 150.43 16.09 142.78 0 142.78 0 131.63 16.09 131.63 16.09 123.98 0 123.98 0 112.83 16.09 112.83 16.09 105.17 0 105.17 0 94.03 16.09 94.03 16.09 86.37 0 86.37 0 75.22 16.09 75.22 16.09 67.56 0 67.56 0 56.42 16.09 56.42 16.09 48.76 0 48.76 0 37.61 16.09 37.61 16.09 29.96 0 29.96 0 18.8 16.09 18.8 16.09 11.15 0 11.15 0 0"/><rect class="cls-2" x="27.7" width="8.08" height="199.19"/><rect class="cls-2" x="262.95" width="8.08" height="199.19"/><polygon class="cls-3" points="35.78 181.42 35.78 199.19 37.76 199.19 262.95 199.19 262.95 0 35.78 181.42"/><polygon class="cls-3" points="298.73 199.19 298.73 188.04 282.63 188.04 282.63 180.38 298.73 180.38 298.73 169.24 282.63 169.24 282.63 161.58 298.73 161.58 298.73 150.43 282.63 150.43 282.63 142.78 298.73 142.78 298.73 131.63 282.63 131.63 282.63 123.98 298.73 123.98 298.73 112.82 282.63 112.82 282.63 105.17 298.73 105.17 298.73 94.02 282.63 94.02 282.63 86.37 298.73 86.37 298.73 75.21 282.63 75.21 282.63 67.56 298.73 67.56 298.73 56.41 282.63 56.41 282.63 48.76 298.73 48.76 298.73 37.6 282.63 37.6 282.63 29.95 298.73 29.95 298.73 18.8 282.63 18.8 282.63 11.14 298.73 11.14 298.73 0 271.03 0 271.03 199.19 298.73 199.19"/></svg>